<svg width="36" height="37" viewBox="0 0 36 37" fill="none" xmlns="http://www.w3.org/2000/svg">
<g id="Group 1">
<path id="Vector" d="M34.958 5.64165C34.2934 4.75178 33.3557 4.08756 32.2785 3.74359L23.1028 0.783654C19.7754 -0.261218 16.1919 -0.261218 12.8645 0.783654L3.69073 3.74359C2.61837 4.08996 1.68567 4.75396 1.02461 5.64165C0.357575 6.53323 -0.000997267 7.60621 0.000208289 8.70703V18.2491C-0.0137713 20.9169 0.676158 23.5439 2.00463 25.8813C3.3331 28.2187 5.25612 30.1891 7.59149 31.6058L15.1484 36.2048C16.0058 36.7244 16.9969 37 18.0085 37C19.0201 37 20.0112 36.7244 20.8686 36.2048L28.4255 31.6077C30.745 30.1966 32.6566 28.2388 33.9813 25.9177C35.306 23.5965 36.0004 20.9879 35.9996 18.3361V8.79398C36.0145 7.66141 35.6501 6.55491 34.958 5.64165ZM19.7907 19.1204V23.318C19.7907 23.7799 19.6011 24.223 19.2636 24.5496C18.9262 24.8762 18.4685 25.0597 17.9913 25.0597C17.5141 25.0597 17.0564 24.8762 16.7189 24.5496C16.3815 24.223 16.1919 23.7799 16.1919 23.318V19.1204C14.9065 18.7068 13.8153 17.8637 13.1134 16.7423C12.4116 15.6209 12.1451 14.2942 12.3616 12.9999C12.578 11.7056 13.2634 10.5282 14.2949 9.67837C15.3264 8.82855 16.6367 8.36187 17.9913 8.36187C19.3458 8.36187 20.6562 8.82855 21.6877 9.67837C22.7192 10.5282 23.4045 11.7056 23.621 12.9999C23.8375 14.2942 23.5709 15.6209 22.8691 16.7423C22.1673 17.8637 21.076 18.7068 19.7907 19.1204Z" fill="#A18072"/>
<path id="Vector_2" d="M20.106 13.8777C20.106 14.4179 19.8843 14.9359 19.4897 15.3179C19.0951 15.6999 18.5599 15.9145 18.0018 15.9145C17.4437 15.9145 16.9085 15.6999 16.5139 15.3179C16.1193 14.9359 15.8976 14.4179 15.8976 13.8777C15.8976 13.3375 16.1193 12.8194 16.5139 12.4374C16.9085 12.0555 17.4437 11.8409 18.0018 11.8409C18.5599 11.8409 19.0951 12.0555 19.4897 12.4374C19.8843 12.8194 20.106 13.3375 20.106 13.8777Z" fill="#A18072"/>
</g>
</svg>
